# xmcd
#
# Track frame offsets:
# 150
# 20563
# 37268
# 54300
# 71500
# 95428
# 110814
# 127052
# 146231
# 163882
# 181913
# 200728
# 219368
#
# Disc length: 3186 seconds
#
#
# Revision: 0
# Processed by: cddbd v1.5.2PL0 Copyright (c) Steve Scherf et al.
# Submitted via: FreeRIP 2.96 
#
DISCID=cd0c700d
DTITLE=Tim McGraw - Let It Go
DYEAR=2007
DGENRE=Country
TTITLE0=Last Dollar
TTITLE1=I'm Workin'
TTITLE2=Let It Go
TTITLE3=Whiskey And You
TTITLE4=Suspicions
TTITLE5=Kristofferson
TTITLE6=Put Your Lovin' On Me
TTITLE7=Nothin' To Die For
TTITLE8=Between The River And Me
TTITLE9=TraIN # 10
TTITLE10=I Need You (Faith Hill)
TTITLE11=Comin' Home
TTITLE12=Shotgun Rider
EXTD=
EXTT0=
EXTT1=
EXTT2=
EXTT3=
EXTT4=
EXTT5=
EXTT6=
EXTT7=
EXTT8=
EXTT9=
EXTT10=
EXTT11=
EXTT12=
PLAYORDER=
